<svg width="172" height="257" viewBox="0 0 172 257" fill="none" xmlns="http://www.w3.org/2000/svg">
<path d="M127.954 1.32888e-05C109.27 0.0104277 90.815 4.11026 73.8842 12.0115C56.9534 19.9127 41.9569 31.4239 29.948 45.7371C17.939 60.0502 9.20848 76.8184 4.36908 94.8645C-0.47032 112.911 -1.30112 131.797 1.93485 150.199C5.17082 168.6 12.3952 186.07 23.1009 201.383C33.8066 216.695 47.734 229.479 63.9055 238.836C80.0771 248.194 98.1008 253.898 116.711 255.549C135.322 257.201 154.069 254.758 171.635 248.394V7.65648C157.63 2.58419 142.848 -0.00677104 127.954 1.32888e-05V1.32888e-05Z" fill="#409472"/>
</svg>
