<svg width="1200" height="247" viewBox="0 0 1200 247" fill="none" xmlns="http://www.w3.org/2000/svg">
<path fill-rule="evenodd" clip-rule="evenodd" d="M0 66.3541L40 60.3541C80 54.3541 160 42.3541 240 54.3541C320 66.3541 400 102.354 480 84.3541C560 66.3541 640 -5.64594 720 0.354057C800 6.35406 880 90.3541 960 108.354C1040 126.354 1120 78.3541 1160 54.3541L1200 30.3541V246.354H1160C1120 246.354 1040 246.354 960 246.354C880 246.354 800 246.354 720 246.354C640 246.354 560 246.354 480 246.354C400 246.354 320 246.354 240 246.354C160 246.354 80 246.354 40 246.354H0V66.3541Z" fill="#1DB954"/>
</svg>
